<?xml version="1.0" encoding="utf-8"?>
<!-- Generator: Adobe Illustrator 23.0.3, SVG Export Plug-In . SVG Version: 6.00 Build 0)  -->
<svg version="1.2" baseProfile="tiny" id="Layer_1" xmlns="http://www.w3.org/2000/svg" xmlns:xlink="http://www.w3.org/1999/xlink"
	 x="0px" y="0px" viewBox="0 0 1214 1214" xml:space="preserve">
<rect x="0.1" y="0.1" fill="#FFFFFF" width="1213.9" height="1213.9"/>
<g>
	<circle fill="#CDD1D0" cx="607" cy="607" r="593.8"/>
	<g>
		<g>
			<g>
				<path fill="#187169" d="M808.7,315.6c-0.7,0-1.3,0.1-2,0.2L402.5,418.7c-4.6,1.1-7.9,5.1-8,9.8V801h146.4V650.6h132.1v150.6
					h146.4V325.6C819.1,319.9,814.4,315.4,808.7,315.6z M499.8,601.1H450v-49.9h49.9L499.8,601.1z M499.8,512.9H450v-50h49.9
					L499.8,512.9z M587.8,601.1h-49.9v-49.9h49.9V601.1z M587.8,512.9h-49.9v-50h49.9V512.9z M675.9,601.1H626v-49.9h49.9V601.1z
					 M675.9,512.8H626v-49.9h49.9V512.8z M763.9,601H714V551h49.9V601z M763.9,512.8H714v-49.9h49.9V512.8z"/>
			</g>
		</g>
		<g>
			<g>
				<path fill="#187169" d="M826.9,816.6h-0.2H387.1c-39.4,0.2-71.4,32.1-71.6,71.6c0,5.7,4.6,10.3,10.3,10.3h562.4
					c5.7,0,10.3-4.6,10.3-10.3C898.2,848.7,866.3,816.8,826.9,816.6z"/>
			</g>
		</g>
	</g>
</g>
</svg>
