<?xml version="1.0" encoding="utf-8"?>
<!-- Generator: Adobe Illustrator 23.0.3, SVG Export Plug-In . SVG Version: 6.00 Build 0)  -->
<svg version="1.2" baseProfile="tiny" id="Layer_1" xmlns="http://www.w3.org/2000/svg" xmlns:xlink="http://www.w3.org/1999/xlink"
	 x="0px" y="0px" viewBox="0 0 1214 1214" xml:space="preserve">
<rect x="0.1" y="0.1" fill="#FFFFFF" width="1213.9" height="1213.9"/>
<g>
	<circle fill="#CDD1D0" cx="607" cy="607" r="594.3"/>
	<g>
		<g>
			<g>
				<path fill="#187169" d="M340,657.5c0.2,0,4.7-0.5,5-0.5l526,0.2c0.2,0,2.8,0.3,3,0.3c0.3,0,0.6,0,1,0c0.2,0,0.4,0,0.5,0
					c6.9,0,12.5-5.6,12.5-12.5c0-2.5-0.7-4.8-2-6.8l-29.4-95.4V394.9c0-34.4-28-62.4-62.4-62.4H419.8c-34.4,0-62.4,28-62.4,62.4
					v147.9l-30.3,98.6c-1.2,3.9-0.4,8.3,2.2,11.5C331.9,656,335.9,657.7,340,657.5z M394.9,532.1h21.4l11.6-46.5
					c4.2-16.7,19.1-28.3,36.3-28.3h80.3c20.6,0,37.4,16.8,37.4,37.4v37.4H632v-37.4c0-20.6,16.8-37.4,37.4-37.4h80.3
					c17.2,0,32.1,11.7,36.3,28.3l11.6,46.5h21.4c6.9,0,12.5,5.6,12.5,12.5c0,6.9-5.6,12.5-12.5,12.5h-21.8c-1.3,3.7-3,7.3-5.6,10.6
					c-7.2,9.1-17.9,14.4-29.5,14.4h-92.8c-16.2,0-30-10.5-35.1-25h-54.5c-5.2,14.5-18.9,25-35.1,25h-92.8
					c-11.6,0-22.4-5.2-29.5-14.4c-2.5-3.2-4.2-6.8-5.6-10.6h-21.8c-6.9,0-12.5-5.6-12.5-12.5C382.4,537.7,388,532.1,394.9,532.1z"/>
				<path fill="#187169" d="M869,681.9H345c-20.6,0-37.4,16.8-37.4,37.4V869c0,6.9,5.6,12.5,12.5,12.5h49.9
					c6.9,0,12.5-5.6,12.5-12.5v-37.4h449.2V869c0,6.9,5.6,12.5,12.5,12.5H894c6.9,0,12.5-5.6,12.5-12.5V719.3
					C906.4,698.7,889.6,681.9,869,681.9z"/>
			</g>
		</g>
	</g>
</g>
</svg>
