<?xml version="1.0" encoding="utf-8"?>
<!-- Generator: Adobe Illustrator 23.0.3, SVG Export Plug-In . SVG Version: 6.00 Build 0)  -->
<svg version="1.1" id="Layer_1" xmlns="http://www.w3.org/2000/svg" xmlns:xlink="http://www.w3.org/1999/xlink" x="0px" y="0px"
	 viewBox="0 0 721.1 305.5" enable-background="new 0 0 721.1 305.5" xml:space="preserve">
<g>
	<defs>
		<rect id="SVGID_1_" y="-0.4" width="721.5" height="305.9"/>
	</defs>
	<clipPath id="SVGID_2_">
		<use xlink:href="#SVGID_1_"  overflow="visible"/>
	</clipPath>
	<g clip-path="url(#SVGID_2_)">
		<path fill="#979797" d="M688.4,299.2h-56.6v-29.4c11.1-10.2,22.2-20.3,33.3-30.5c6.3,6.4,12.6,12.9,18.9,19.3
			C685.5,272.1,687,285.7,688.4,299.2z"/>
		
			<rect x="645" y="227.6" transform="matrix(0.7071 0.7071 -0.7071 0.7071 369.1431 -384.1125)" fill="#027168" width="6.5" height="51.9"/>
		<rect x="631.9" y="296.1" fill="#979797" width="46.1" height="31.1"/>
		<path fill="#027168" d="M714.3,87c-0.7-7.3-6.9-13-14.4-13s-13.7,5.7-14.4,13h-0.1v31.9h29L714.3,87L714.3,87z"/>
		<rect x="476.8" y="96.6" fill="#979797" width="31.4" height="33.1"/>
		<rect x="468.3" y="191.8" fill="#979797" width="49" height="38"/>
		<rect x="468.2" y="138.3" fill="#979797" width="49" height="24.3"/>
		<g>
			<rect x="514.5" y="243.7" fill="#027168" width="66.2" height="63.9"/>
			<rect x="514.6" y="258.6" fill="#979797" width="9.6" height="22.3"/>
			<rect x="524.2" y="258.6" fill="#027168" width="3.6" height="22.3"/>
			<rect x="534.4" y="258.6" fill="#027168" width="3.6" height="22.3"/>
			<rect x="527.8" y="258.6" fill="#979797" width="6.6" height="22.3"/>
			<rect x="561.4" y="258.6" fill="#979797" width="10" height="22.3"/>
			<rect x="538" y="258.6" fill="#979797" width="9.6" height="22.3"/>
			<rect x="547.6" y="258.6" fill="#027168" width="3.6" height="22.3"/>
			<rect x="557.9" y="258.6" fill="#027168" width="3.6" height="22.3"/>
			<rect x="551.2" y="258.6" fill="#979797" width="6.6" height="22.3"/>
			<rect x="575" y="258.6" fill="#979797" width="5.8" height="22.3"/>
			<path fill="#979797" d="M559.1,295.3c-0.4-6-5.4-10.8-11.5-10.8c-6.1,0-11.1,4.8-11.5,10.8h0v12.3h23.1L559.1,295.3L559.1,295.3z
				"/>
		</g>
		<rect x="566.4" y="258.6" fill="#027168" width="66.2" height="49"/>
		<rect x="413.1" y="307.6" fill="#027168" width="219.5" height="19.5"/>
		<rect x="576.1" y="258.6" fill="#027168" width="3.6" height="22.3"/>
		<rect x="586.3" y="258.6" fill="#027168" width="3.6" height="22.3"/>
		<rect x="574" y="258.6" fill="#979797" width="6.6" height="68.5"/>
		<rect x="613.3" y="258.6" fill="#979797" width="10" height="22.3"/>
		<rect x="589.9" y="258.6" fill="#979797" width="9.6" height="22.3"/>
		<rect x="599.5" y="258.6" fill="#027168" width="3.6" height="22.3"/>
		<rect x="609.7" y="258.6" fill="#027168" width="3.6" height="22.3"/>
		<rect x="603.1" y="258.6" fill="#979797" width="6.6" height="22.3"/>
		<rect x="626.9" y="258.6" fill="#979797" width="5.8" height="22.3"/>
		<path fill="#979797" d="M611,295.3c-0.4-6-5.4-10.8-11.5-10.8c-6.1,0-11.1,4.8-11.5,10.8h0v12.3h23.1L611,295.3L611,295.3z"/>
		<rect x="414.4" y="243.7" fill="#027168" width="56.8" height="63.9"/>
		<g>
			<rect x="414.4" y="258.6" fill="#979797" width="9.6" height="22.3"/>
			<rect x="424" y="258.6" fill="#027168" width="3.6" height="22.3"/>
			<rect x="434.2" y="258.6" fill="#027168" width="3.6" height="22.3"/>
			<rect x="427.6" y="258.6" fill="#979797" width="6.6" height="22.3"/>
			<rect x="461.2" y="258.6" fill="#979797" width="10" height="22.3"/>
			<rect x="437.8" y="258.6" fill="#979797" width="9.6" height="22.3"/>
			<rect x="447.4" y="258.6" fill="#027168" width="3.6" height="22.3"/>
			<rect x="457.6" y="258.6" fill="#027168" width="3.6" height="22.3"/>
			<rect x="451" y="258.6" fill="#979797" width="6.6" height="22.3"/>
		</g>
		<polygon fill="#979797" points="547.5,229.8 438.9,229.8 420.9,245.1 564.6,245.1 		"/>
		<rect x="388.9" y="256.2" fill="#027168" width="25.5" height="70.9"/>
		<rect x="303.4" y="222.5" fill="#027168" width="85.5" height="104.6"/>
		<rect x="311.2" y="258.6" fill="#979797" width="70.7" height="68.5"/>
		<path fill="#027168" d="M377.5,309.3L377.5,309.3v-0.2h-0.1l-4.6-6c4.5-5.9,1.6-15,0.9-17.1c-1.9-5.9-5.4-9.5-7.7-11.8
			c-7-7.1-15.3-9.6-20-10.7c-3.5,0.8-9.2,2.5-14.8,6.8c-2.7,2.1-9.9,7.7-12.3,17.7c-1.6,6.9-0.2,12.7,0.8,15.7v0l-4,5.3h-0.1v18
			h61.9V309.3L377.5,309.3z"/>
		<rect x="221.8" y="205.2" fill="#027168" width="45.6" height="121.9"/>
		<path fill="#979797" d="M244.6,210c-11.1,0-20.2,9-20.2,20.2v96.5h40.4v-96.5C264.8,219,255.8,210,244.6,210z"/>
		<rect x="201.2" y="190.1" fill="#027168" width="20.6" height="137"/>
		<rect x="267.4" y="190.1" fill="#027168" width="20.6" height="137"/>
		<rect x="206.5" y="160.3" fill="#027168" width="10" height="29.8"/>
		<rect x="272.7" y="160.3" fill="#027168" width="10" height="29.8"/>
		<polygon fill="#027168" points="211.5,149.6 214,155 216.5,160.3 211.5,160.3 206.5,160.3 209,155 		"/>
		<polygon fill="#027168" points="277.7,149.6 280.2,155 282.7,160.3 277.7,160.3 272.7,160.3 275.2,155 		"/>
		<rect x="118.2" y="288.2" fill="#979797" width="66.3" height="38.9"/>
		<rect x="-0.3" y="234.8" fill="#027168" width="118.4" height="92.3"/>
		<rect x="11.5" y="249.3" fill="#979797" width="95.9" height="77.9"/>
		<polygon fill="#027168" points="59.5,169.5 77.1,188.3 94.7,207.1 59.5,207.1 24.3,207.1 41.9,188.3 		"/>
		<rect x="19.7" y="218.3" fill="#027168" width="79.7" height="18.5"/>
		<rect x="24.3" y="207.1" fill="#027168" width="70.4" height="13.5"/>
		<g>
			<polygon fill="#979797" points="29.3,198.9 31.8,203 34.3,207.1 29.3,207.1 24.3,207.1 26.8,203 			"/>
			<polygon fill="#979797" points="39.4,198.9 41.9,203 44.4,207.1 39.4,207.1 34.3,207.1 36.9,203 			"/>
			<polygon fill="#979797" points="49.4,198.9 51.9,203 54.5,207.1 49.4,207.1 44.4,207.1 46.9,203 			"/>
			<polygon fill="#979797" points="59.5,198.9 62,203 64.5,207.1 59.5,207.1 54.5,207.1 57,203 			"/>
			<polygon fill="#979797" points="69.5,198.9 72.1,203 74.6,207.1 69.5,207.1 64.5,207.1 67,203 			"/>
			<polygon fill="#979797" points="79.6,198.9 82.1,203 84.6,207.1 79.6,207.1 74.6,207.1 77.1,203 			"/>
			<polygon fill="#979797" points="89.7,198.9 92.2,203 94.7,207.1 89.7,207.1 84.6,207.1 87.1,203 			"/>
		</g>
		<g>
			<polygon fill="#979797" points="5.1,226.1 7.8,230.5 10.5,234.8 5.1,234.8 -0.3,234.8 2.4,230.5 			"/>
			<polygon fill="#979797" points="15.9,226.1 18.6,230.5 21.3,234.8 15.9,234.8 10.5,234.8 13.2,230.5 			"/>
			<polygon fill="#979797" points="26.7,226.1 29.4,230.5 32.1,234.8 26.7,234.8 21.3,234.8 24,230.5 			"/>
			<polygon fill="#979797" points="37.4,226.1 40.1,230.5 42.8,234.8 37.4,234.8 32.1,234.8 34.7,230.5 			"/>
			<polygon fill="#979797" points="48.2,226.1 50.9,230.5 53.6,234.8 48.2,234.8 42.8,234.8 45.5,230.5 			"/>
			<polygon fill="#979797" points="59,226.1 61.7,230.5 64.4,234.8 59,234.8 53.6,234.8 56.3,230.5 			"/>
			<polygon fill="#979797" points="69.7,226.1 72.4,230.5 75.1,234.8 69.7,234.8 64.4,234.8 67,230.5 			"/>
			<polygon fill="#979797" points="80.5,226.1 83.2,230.5 85.9,234.8 80.5,234.8 75.1,234.8 77.8,230.5 			"/>
			<polygon fill="#979797" points="91.3,226.1 94,230.5 96.7,234.8 91.3,234.8 85.9,234.8 88.6,230.5 			"/>
			<polygon fill="#979797" points="102,226.1 104.7,230.5 107.4,234.8 102,234.8 96.7,234.8 99.4,230.5 			"/>
			<polygon fill="#979797" points="112.8,226.1 115.5,230.5 118.2,234.8 112.8,234.8 107.4,234.8 110.1,230.5 			"/>
		</g>
		<path fill="#027168" d="M39.6,289.2c0-4.8-4.7-8.8-10.5-8.8s-10.5,3.9-10.5,8.8c0,2.6,1.3,4.9,3.5,6.5l-3.5,3.2v28.4h21.1v-28.4
			l-3.5-3.2C38.2,294.1,39.6,291.8,39.6,289.2z"/>
		<path fill="#027168" d="M100.4,289.2c0-4.8-4.7-8.8-10.5-8.8c-5.8,0-10.5,3.9-10.5,8.8c0,2.6,1.3,4.9,3.5,6.5l-3.5,3.2v28.4h21.1
			v-28.4l-3.5-3.2C99,294.1,100.4,291.8,100.4,289.2z"/>
		<path fill="#027168" d="M76.2,290c0-8.1-7.5-14.7-16.7-14.7s-16.7,6.6-16.7,14.7c0,4.4,2.2,8.3,5.6,11l-5.6,4.9H43v21.3h33.1V306
			h0.1l-5.6-4.9C74,298.3,76.2,294.4,76.2,290z"/>
		
			<rect x="14.4" y="258.6" transform="matrix(0.7071 -0.7071 0.7071 0.7071 -181.5383 92.8443)" fill="#979797" width="13.9" height="13.9"/>
		
			<rect x="33.5" y="258.6" transform="matrix(0.7071 -0.7071 0.7071 0.7071 -175.9498 106.3362)" fill="#979797" width="13.9" height="13.9"/>
		
			<rect x="52.5" y="258.6" transform="matrix(0.7071 -0.7071 0.7071 0.7071 -170.3612 119.8281)" fill="#979797" width="13.9" height="13.9"/>
		
			<rect x="71.6" y="258.6" transform="matrix(0.7071 -0.7071 0.7071 0.7071 -164.7727 133.32)" fill="#979797" width="13.9" height="13.9"/>
		
			<rect x="90.7" y="258.6" transform="matrix(0.7071 -0.7071 0.7071 0.7071 -159.1842 146.8119)" fill="#979797" width="13.9" height="13.9"/>
		<rect x="118.2" y="252.6" fill="#027168" width="66.3" height="35.6"/>
		<rect x="122.2" y="296" fill="#027168" width="7.9" height="7.9"/>
		<rect x="122.2" y="311.6" fill="#027168" width="7.9" height="7.9"/>
		<rect x="152.4" y="296" fill="#027168" width="7.9" height="7.9"/>
		<rect x="152.4" y="311.6" fill="#027168" width="7.9" height="7.9"/>
		<rect x="171.9" y="296" fill="#027168" width="7.9" height="7.9"/>
		<rect x="171.9" y="311.6" fill="#027168" width="7.9" height="7.9"/>
		<rect x="142.9" y="288.2" fill="#027168" width="3.1" height="39.1"/>
		<rect x="184.5" y="233.7" fill="#027168" width="8.2" height="93.4"/>
		<polygon fill="#027168" points="188.6,226.6 190.7,230.2 192.7,233.7 188.6,233.7 184.5,233.7 186.6,230.2 		"/>
		<rect x="206.4" y="196.7" fill="#979797" width="10.6" height="55.9"/>
		<rect x="272.4" y="196.7" fill="#979797" width="10.6" height="55.9"/>
		<rect x="210.1" y="257.8" fill="#979797" width="3.1" height="6.4"/>
		<rect x="210.1" y="271.8" fill="#979797" width="3.1" height="6.4"/>
		<rect x="210.1" y="285.8" fill="#979797" width="3.1" height="6.4"/>
		<rect x="276.2" y="257.8" fill="#979797" width="3.1" height="6.4"/>
		<rect x="276.2" y="271.8" fill="#979797" width="3.1" height="6.4"/>
		<rect x="276.2" y="285.8" fill="#979797" width="3.1" height="6.4"/>
		<path fill="#027168" d="M250.6,243.1c-0.4-3-3-5.4-6.2-5.4c-3.2,0-5.8,2.4-6.2,5.4h-0.1v33.3h12.4L250.6,243.1L250.6,243.1z"/>
		<path fill="#979797" d="M405.7,305c-0.3-2-2-3.6-4.1-3.6c-2.1,0-3.8,1.6-4.1,3.6h0v22.2h8.3L405.7,305L405.7,305z"/>
		<path fill="#027168" d="M235.5,262.8c0-1.9-1.5-3.4-3.4-3.4c-1.9,0-3.4,1.5-3.4,3.4h0v6.8h6.8L235.5,262.8L235.5,262.8z"/>
		<path fill="#027168" d="M235.5,246c0-1.9-1.5-3.4-3.4-3.4c-1.9,0-3.4,1.5-3.4,3.4h0v6.8h6.8L235.5,246L235.5,246z"/>
		<path fill="#027168" d="M260.4,262.8c0-1.9-1.5-3.4-3.4-3.4c-1.9,0-3.4,1.5-3.4,3.4h0v6.8h6.8L260.4,262.8L260.4,262.8z"/>
		<path fill="#027168" d="M260.4,246c0-1.9-1.5-3.4-3.4-3.4c-1.9,0-3.4,1.5-3.4,3.4h0v6.8h6.8L260.4,246L260.4,246z"/>
		<path fill="#027168" d="M232.3,298c-1.2,0-2.2,1-2.2,2.2v18.2h4.3v-18.2C234.4,299,233.5,298,232.3,298z"/>
		<path fill="#027168" d="M244.6,298c-1.2,0-2.2,1-2.2,2.2v18.2h4.3v-18.2C246.8,299,245.8,298,244.6,298z"/>
		<path fill="#027168" d="M257,298c-1.2,0-2.2,1-2.2,2.2v18.2h4.3v-18.2C259.2,299,258.2,298,257,298z"/>
		<g>
			<rect x="192.7" y="235.1" fill="#979797" width="8.4" height="92"/>
			<g>
				<rect x="192.7" y="247.7" fill="#027168" width="5.2" height="2.9"/>
				<rect x="192.7" y="254.2" fill="#027168" width="5.2" height="2.9"/>
				<rect x="192.7" y="260.6" fill="#027168" width="5.2" height="2.9"/>
				<rect x="192.7" y="267.1" fill="#027168" width="5.2" height="2.9"/>
				<rect x="192.7" y="273.5" fill="#027168" width="5.2" height="2.9"/>
				<rect x="192.7" y="280" fill="#027168" width="5.2" height="2.9"/>
				<rect x="192.7" y="286.4" fill="#027168" width="5.2" height="2.9"/>
				<rect x="192.7" y="292.9" fill="#027168" width="5.2" height="2.9"/>
				<rect x="192.7" y="299.3" fill="#027168" width="5.2" height="2.9"/>
			</g>
			<rect x="195.7" y="227.9" fill="#979797" width="2.4" height="7.3"/>
		</g>
		<g>
			
				<rect x="288" y="235.1" transform="matrix(-1 -4.553525e-11 4.553525e-11 -1 584.4635 562.2667)" fill="#979797" width="8.4" height="92"/>
			<g>
				
					<rect x="291.2" y="247.7" transform="matrix(-1 -4.414392e-11 4.414392e-11 -1 587.6797 498.3115)" fill="#027168" width="5.2" height="2.9"/>
				
					<rect x="291.2" y="254.2" transform="matrix(-1 -4.676138e-11 4.676138e-11 -1 587.6797 511.2105)" fill="#027168" width="5.2" height="2.9"/>
				
					<rect x="291.2" y="260.6" transform="matrix(-1 -4.396939e-11 4.396939e-11 -1 587.6797 524.1096)" fill="#027168" width="5.2" height="2.9"/>
				
					<rect x="291.2" y="267.1" transform="matrix(-1 -4.431845e-11 4.431845e-11 -1 587.6797 537.0087)" fill="#027168" width="5.2" height="2.9"/>
				
					<rect x="291.2" y="273.5" transform="matrix(-1 -4.257362e-11 4.257362e-11 -1 587.6797 549.9077)" fill="#027168" width="5.2" height="2.9"/>
				
					<rect x="291.2" y="280" transform="matrix(-1 -4.920387e-11 4.920387e-11 -1 587.6797 562.8068)" fill="#027168" width="5.2" height="2.9"/>
				
					<rect x="291.2" y="286.4" transform="matrix(-1 -4.396939e-11 4.396939e-11 -1 587.6797 575.7059)" fill="#027168" width="5.2" height="2.9"/>
				
					<rect x="291.2" y="292.9" transform="matrix(-1 -4.292268e-11 4.292268e-11 -1 587.6797 588.6049)" fill="#027168" width="5.2" height="2.9"/>
				
					<rect x="291.2" y="299.3" transform="matrix(-1 -4.780810e-11 4.780810e-11 -1 587.6797 601.504)" fill="#027168" width="5.2" height="2.9"/>
			</g>
			
				<rect x="291" y="227.9" transform="matrix(-1 -4.696744e-11 4.696744e-11 -1 584.4635 463.0067)" fill="#979797" width="2.4" height="7.3"/>
		</g>
		<rect x="303.4" y="215.1" fill="#027168" width="2.3" height="7.4"/>
		<rect x="309" y="215.1" fill="#027168" width="2.3" height="7.4"/>
		<rect x="314.5" y="215.1" fill="#027168" width="2.3" height="7.4"/>
		<rect x="320" y="215.1" fill="#027168" width="2.3" height="7.4"/>
		<rect x="325.6" y="215.1" fill="#027168" width="2.3" height="7.4"/>
		<rect x="331.1" y="215.1" fill="#027168" width="2.3" height="7.4"/>
		<rect x="336.7" y="215.1" fill="#027168" width="2.3" height="7.4"/>
		<rect x="342.2" y="215.1" fill="#027168" width="2.3" height="7.4"/>
		<rect x="347.8" y="215.1" fill="#027168" width="2.3" height="7.4"/>
		<rect x="353.3" y="215.1" fill="#027168" width="2.3" height="7.4"/>
		<rect x="358.9" y="215.1" fill="#027168" width="2.3" height="7.4"/>
		<rect x="364.4" y="215.1" fill="#027168" width="2.3" height="7.4"/>
		<rect x="369.9" y="215.1" fill="#027168" width="2.3" height="7.4"/>
		<rect x="375.5" y="215.1" fill="#027168" width="2.3" height="7.4"/>
		<rect x="381" y="215.1" fill="#027168" width="2.3" height="7.4"/>
		<rect x="386.6" y="215.1" fill="#027168" width="2.3" height="7.4"/>
		<rect x="303.4" y="234.5" fill="#979797" width="85.8" height="10.3"/>
		<rect x="303.4" y="222.5" fill="#027168" width="85.8" height="12"/>
		<rect x="296.4" y="233.7" fill="#027168" width="8.2" height="93.4"/>
		<polygon fill="#027168" points="300.5,226.6 302.6,230.2 304.6,233.7 300.5,233.7 296.4,233.7 298.5,230.2 		"/>
		<g>
			<rect x="311.8" y="249.2" fill="#979797" width="6" height="2.9"/>
			<rect x="322.4" y="249.2" fill="#979797" width="6" height="2.9"/>
			<rect x="333" y="249.2" fill="#979797" width="6" height="2.9"/>
			<rect x="343.6" y="249.2" fill="#979797" width="6" height="2.9"/>
			<rect x="354.1" y="249.2" fill="#979797" width="6" height="2.9"/>
			<rect x="364.7" y="249.2" fill="#979797" width="6" height="2.9"/>
			<rect x="375.3" y="249.2" fill="#979797" width="6" height="2.9"/>
		</g>
		<rect x="393.4" y="231.6" fill="#979797" width="2.4" height="8.9"/>
		<rect x="399.6" y="231.6" fill="#979797" width="2.4" height="8.9"/>
		<rect x="405.8" y="231.6" fill="#979797" width="2.4" height="8.9"/>
		<rect x="412" y="231.6" fill="#979797" width="2.4" height="8.9"/>
		<rect x="388.9" y="238.2" fill="#979797" width="25.5" height="9"/>
		<rect x="388.9" y="247.2" fill="#979797" width="25.5" height="9"/>
		<path fill="#979797" d="M446.9,295.3c-0.4-6-5.4-10.8-11.5-10.8c-6.1,0-11.1,4.8-11.5,10.8h0v12.3H447L446.9,295.3L446.9,295.3z"
			/>
		<polygon fill="#979797" points="414.4,243.7 614.9,243.7 632.9,258.6 414.4,258.6 		"/>
		<g>
			<path fill="#979797" d="M431.5,314.2c0-1.6-1.3-2.9-2.9-2.9s-2.9,1.3-2.9,2.9v12.9h5.9L431.5,314.2L431.5,314.2z"/>
			<path fill="#979797" d="M443.9,314.2c0-1.6-1.3-2.9-2.9-2.9c-1.6,0-2.9,1.3-2.9,2.9v12.9h5.9L443.9,314.2L443.9,314.2z"/>
			<path fill="#979797" d="M456.3,314.2c0-1.6-1.3-2.9-2.9-2.9s-2.9,1.3-2.9,2.9v12.9h5.9L456.3,314.2L456.3,314.2z"/>
			<path fill="#979797" d="M468.8,314.2c0-1.6-1.3-2.9-2.9-2.9c-1.6,0-2.9,1.3-2.9,2.9v12.9h5.9L468.8,314.2L468.8,314.2z"/>
			<path fill="#979797" d="M481.2,314.2c0-1.6-1.3-2.9-2.9-2.9s-2.9,1.3-2.9,2.9v12.9h5.9L481.2,314.2L481.2,314.2z"/>
			<path fill="#979797" d="M493.6,314.2c0-1.6-1.3-2.9-2.9-2.9c-1.6,0-2.9,1.3-2.9,2.9v12.9h5.9L493.6,314.2L493.6,314.2z"/>
			<path fill="#979797" d="M506,314.2c0-1.6-1.3-2.9-2.9-2.9c-1.6,0-2.9,1.3-2.9,2.9v12.9h5.9L506,314.2L506,314.2z"/>
			<path fill="#979797" d="M518.4,314.2c0-1.6-1.3-2.9-2.9-2.9s-2.9,1.3-2.9,2.9v12.9h5.9L518.4,314.2L518.4,314.2z"/>
			<path fill="#979797" d="M530.9,314.2c0-1.6-1.3-2.9-2.9-2.9s-2.9,1.3-2.9,2.9v12.9h5.9L530.9,314.2L530.9,314.2z"/>
			<path fill="#979797" d="M543.3,314.2c0-1.6-1.3-2.9-2.9-2.9c-1.6,0-2.9,1.3-2.9,2.9v12.9h5.9L543.3,314.2L543.3,314.2z"/>
			<path fill="#979797" d="M555.7,314.2c0-1.6-1.3-2.9-2.9-2.9s-2.9,1.3-2.9,2.9v12.9h5.9L555.7,314.2L555.7,314.2z"/>
			<path fill="#979797" d="M568.1,314.2c0-1.6-1.3-2.9-2.9-2.9s-2.9,1.3-2.9,2.9v12.9h5.9L568.1,314.2L568.1,314.2z"/>
		</g>
		<rect x="471.2" y="258.6" fill="#027168" width="43.5" height="49"/>
		<rect x="468.2" y="124.1" fill="#027168" width="2.7" height="14.8"/>
		<rect x="514.5" y="124.1" fill="#027168" width="2.7" height="14.8"/>
		<rect x="468.2" y="127.6" fill="#027168" width="49" height="11.2"/>
		<rect x="468.2" y="161.4" fill="#027168" width="49" height="30.5"/>
		<g>
			<circle fill="#027168" cx="475.3" cy="150.1" r="5.8"/>
			<circle fill="#027168" cx="486.9" cy="150.1" r="5.8"/>
			<circle fill="#027168" cx="498.5" cy="150.1" r="5.8"/>
			<circle fill="#027168" cx="510.1" cy="150.1" r="5.8"/>
		</g>
		<g>
			<circle fill="#027168" cx="492.5" cy="67.6" r="4.1"/>
			<circle fill="#027168" cx="492.5" cy="59.3" r="4.1"/>
			<circle fill="#027168" cx="492.5" cy="51.1" r="4.1"/>
		</g>
		<g>
			<rect x="480.6" y="212.3" fill="#027168" width="10.6" height="10.6"/>
			<rect x="480.6" y="198.7" fill="#027168" width="10.6" height="10.6"/>
			<rect x="494.4" y="212.3" fill="#027168" width="10.6" height="10.6"/>
			<rect x="494.4" y="198.7" fill="#027168" width="10.6" height="10.6"/>
		</g>
		<rect x="476.8" y="75.4" fill="#027168" width="3.1" height="21.1"/>
		<rect x="505.1" y="75.4" fill="#027168" width="3.1" height="21.1"/>
		<path fill="#027168" d="M508.2,85.3H505c0-0.4,0.1-0.8,0.1-1.2c0-7-5.6-12.6-12.6-12.6s-12.6,5.6-12.6,12.6c0,0.4,0,0.8,0.1,1.2
			h-3.2v11.2h13.9c0.6,0.1,1.2,0.1,1.8,0.1c0.6,0,1.2-0.1,1.8-0.1h13.9V85.3z"/>
		<rect x="482.2" y="104.9" fill="#027168" width="2.5" height="18.3"/>
		<rect x="486.2" y="104.9" fill="#027168" width="2.5" height="18.3"/>
		<rect x="496.7" y="104.9" fill="#027168" width="2.5" height="18.3"/>
		<rect x="500.7" y="104.9" fill="#027168" width="2.5" height="18.3"/>
		<rect x="667" y="303.6" fill="#027168" width="65.2" height="23.5"/>
		<rect x="674.3" y="293.6" fill="#027168" width="51.2" height="14"/>
		<path fill="#027168" d="M678.7,293.6c0.6-1.6,1.4-4.1,2.2-7.1c3.1-11.5,3.3-20.1,3.6-29.6c0.8-24.1,1.5-19.6,1.9-41
			c0.2-10.9,0.2-18.6,0.1-23.7c0-14.6,0.1-35.6,1-63c8.7,0,17.4,0,26,0c-0.3,9.6-0.5,21.7-0.6,35.8c-0.1,15.6,0.1,27.3,0.6,50
			c0.7,35.8,1.2,42.4,2.1,49.4c1.6,13,3.7,23.6,5.3,30.5c-5.5,1.7-14.5,3.8-25.5,2.7C688.7,297,682.9,295.3,678.7,293.6z"/>
		<rect x="678.7" y="117.9" fill="#027168" width="42.4" height="14"/>
		<rect x="678.7" y="130.5" fill="#027168" width="2.4" height="6.4"/>
		<rect x="718.6" y="130.5" fill="#027168" width="2.4" height="6.4"/>
		<g>
			<rect x="687.7" y="91" fill="#979797" width="5.2" height="5.2"/>
			<rect x="694.2" y="91" fill="#979797" width="5.2" height="5.2"/>
			<rect x="700.7" y="91" fill="#979797" width="5.2" height="5.2"/>
			<rect x="707.3" y="91" fill="#979797" width="5.2" height="5.2"/>
			<rect x="687.7" y="98.5" fill="#979797" width="5.2" height="5.2"/>
			<rect x="694.2" y="98.5" fill="#979797" width="5.2" height="5.2"/>
			<rect x="700.7" y="98.5" fill="#979797" width="5.2" height="5.2"/>
			<rect x="707.3" y="98.5" fill="#979797" width="5.2" height="5.2"/>
			<rect x="687.7" y="106" fill="#979797" width="5.2" height="5.2"/>
			<rect x="694.2" y="106" fill="#979797" width="5.2" height="5.2"/>
			<rect x="700.7" y="106" fill="#979797" width="5.2" height="5.2"/>
			<rect x="707.3" y="106" fill="#979797" width="5.2" height="5.2"/>
		</g>
		<rect x="679.9" y="87" fill="#027168" width="39.9" height="3.3"/>
		<rect x="679.9" y="112.9" fill="#027168" width="39.9" height="3.3"/>
		
			<rect x="677" y="227.6" transform="matrix(0.7071 -0.7071 0.7071 0.7071 19.9727 555.2961)" fill="#027168" width="6.5" height="51.9"/>
		<circle fill="#027168" cx="664.6" cy="258.6" r="7.4"/>
		<rect x="642.5" y="275.4" fill="#027168" width="11.4" height="14"/>
		<rect x="658.9" y="275.4" fill="#027168" width="11.4" height="14"/>
	</g>
</g>
</svg>
