<?xml version="1.0" encoding="utf-8"?>
<!-- Generator: Adobe Illustrator 23.0.3, SVG Export Plug-In . SVG Version: 6.00 Build 0)  -->
<svg version="1.2" baseProfile="tiny" id="Layer_1" xmlns="http://www.w3.org/2000/svg" xmlns:xlink="http://www.w3.org/1999/xlink"
	 x="0px" y="0px" viewBox="0 0 1020 1020" xml:space="preserve">
<g>
	<rect y="0" fill="#037168" width="1020" height="1020"/>
	<g>
		<path fill="#FFFFFF" d="M349.3,353.5c4,3.9,10.4,3.8,14.3-0.1c3.9-3.9,4-10.3,0.1-14.3l-61.4-61.4c-4-3.9-10.4-3.8-14.3,0.1
			c-3.9,3.9-4,10.3-0.1,14.3L349.3,353.5z"/>
		<path fill="#FFFFFF" d="M305.4,510c0-5.7-4.6-10.2-10.2-10.2h-81.9c-5.7,0-10.2,4.6-10.2,10.2c0,5.7,4.6,10.2,10.2,10.2h81.9
			C300.8,520.2,305.4,515.7,305.4,510z"/>
		<path fill="#FFFFFF" d="M349.3,666.5l-61.4,61.4c-2.7,2.6-3.7,6.4-2.8,10c0.9,3.6,3.7,6.4,7.3,7.3c3.6,0.9,7.4-0.1,10-2.8
			l61.4-61.4c3.9-4,3.8-10.4-0.1-14.3C359.7,662.6,353.3,662.6,349.3,666.5z"/>
		<path fill="#FFFFFF" d="M782.3,565.4c-3.5-2.7-8.2-2.9-11.9-0.5c-18.6,12.1-40.5,18.1-62.7,17.4c-67.2-0.9-120.9-56-120.2-123.1
			c0.4-51.8,32.2-98.2,80.4-117.4c4.1-1.5,6.7-5.5,6.6-9.8c-0.1-4.3-3-8.1-7.1-9.5c-19.2-5.2-39.1-7.6-59-6.9
			c-30.7,0-61,7.7-88.1,22.3V213.3c0-5.7-4.6-10.2-10.2-10.2s-10.2,4.6-10.2,10.2v103.4C400.9,327.2,326,410.6,326,510
			s75,182.8,173.8,193.3v103.4c0,5.6,4.6,10.2,10.2,10.2s10.2-4.6,10.2-10.2V682.1c48.5,26.1,106,29.4,157.2,9.1
			c51.2-20.3,90.8-62.2,108.2-114.4C787.1,572.7,785.7,568.1,782.3,565.4z"/>
		<path fill="#FFFFFF" d="M816.4,420.6c-1.2-3.6-4.4-6.3-8.2-6.9l-37-5.7l-16.7-35.5c-1.7-3.6-5.3-5.9-9.3-5.9c-4,0-7.6,2.3-9.3,5.9
			l-16.7,35.5l-37,5.7c-3.8,0.6-6.9,3.2-8.2,6.9c-1.2,3.6-0.3,7.6,2.4,10.4l27.1,27.8l-6.4,39.3c-0.6,3.9,1,7.7,4.2,10
			c3.2,2.3,7.4,2.5,10.8,0.6l33-18.3l33,18.2c1.5,0.8,3.2,1.3,4.9,1.3c3,0,5.9-1.3,7.8-3.6c2-2.3,2.8-5.3,2.3-8.3l-6.4-39.3
			l27.1-27.8C816.7,428.3,817.6,424.3,816.4,420.6z"/>
	</g>
</g>
</svg>
