<?xml version="1.0" encoding="utf-8"?>
<!-- Generator: Adobe Illustrator 23.0.3, SVG Export Plug-In . SVG Version: 6.00 Build 0)  -->
<svg version="1.2" baseProfile="tiny" id="Layer_1" xmlns="http://www.w3.org/2000/svg" xmlns:xlink="http://www.w3.org/1999/xlink"
	 x="0px" y="0px" viewBox="0 0 1214 1214" xml:space="preserve">
<g>
	<g>
		<path fill="#FFFFFF" d="M902.4,554.2c-6.1-13.4-19.3-21.9-34-21.9H719V46.8c0-20.6-16.7-37.3-37.3-37.3H532.3
			c-20.6,0-37.3,16.7-37.3,37.3v485.5H345.5c-14.6,0-27.9,8.6-34,21.9c-6.1,13.4-3.7,29,5.9,40L578.9,893
			c7.1,8.1,17.3,12.8,28.1,12.8s21-4.7,28.1-12.8l261.5-298.8C906.2,583.2,908.5,567.6,902.4,554.2z"/>
	</g>
	<g>
		<path fill="#FFFFFF" d="M1017.8,831.1v224.1H196.1V831.1H46.8v298.8c0,41.3,33.5,74.7,74.7,74.7h971.1c41.3,0,74.7-33.4,74.7-74.7
			V831.1H1017.8z"/>
	</g>
</g>
</svg>
