<?xml version="1.0" encoding="utf-8"?>
<!-- Generator: Adobe Illustrator 23.0.3, SVG Export Plug-In . SVG Version: 6.00 Build 0)  -->
<svg version="1.2" baseProfile="tiny" id="Layer_1" xmlns="http://www.w3.org/2000/svg" xmlns:xlink="http://www.w3.org/1999/xlink"
	 x="0px" y="0px" viewBox="0 0 500 510" xml:space="preserve">
<g>
	<path fill="#007169" d="M492.5,255c0-133.9-108.6-242.5-242.5-242.5S7.5,121.1,7.5,255S116.1,497.5,250,497.5c1.4,0,2.8,0,4.3-0.1
		V308.7h-52.1V248h52.1v-44.7c0-51.8,31.6-80,77.9-80c22.1,0,41.2,1.7,46.7,2.4v54.2H347c-25.1,0-30,12-30,29.5V248h60.1l-7.8,60.7
		H317v179.5C418.3,459.1,492.5,365.7,492.5,255z"/>
</g>
</svg>
