<?xml version="1.0" encoding="utf-8"?>
<!-- Generator: Adobe Illustrator 23.0.3, SVG Export Plug-In . SVG Version: 6.00 Build 0)  -->
<svg version="1.2" baseProfile="tiny" id="Layer_1" xmlns="http://www.w3.org/2000/svg" xmlns:xlink="http://www.w3.org/1999/xlink"
	 x="0px" y="0px" viewBox="0 0 1020 1020" xml:space="preserve">
<g>
	<rect x="0" y="0" fill="#037168" width="1020" height="1020"/>
	<g>
		<g>
			<g>
				<path fill="#FFFFFF" d="M415.5,201.4H225.7c-13.4,0-24.2,10.8-24.2,24.2v189c0,13.4,10.8,24.2,24.2,24.2
					c13.4,0,24.2-10.8,24.2-24.2V249.9h165.6c13.4,0,24.2-10.8,24.2-24.2C439.7,212.3,428.9,201.4,415.5,201.4z"/>
				<path fill="#FFFFFF" d="M414.7,769.3H249.9V604.5c0-13.4-10.8-24.2-24.2-24.2c-13.4,0-24.2,10.8-24.2,24.2v189
					c0,13.4,10.8,24.2,24.2,24.2h189c13.4,0,24.2-10.8,24.2-24.2C438.9,780.1,428.1,769.3,414.7,769.3z"/>
				<path fill="#FFFFFF" d="M793.5,580.3c-13.4,0-24.2,10.8-24.2,24.2v165.6H604.5c-13.4,0-24.2,10.8-24.2,24.2s10.8,24.2,24.2,24.2
					h189c13.4,0,24.2-10.8,24.2-24.2V604.5C817.8,591.1,806.9,580.3,793.5,580.3z"/>
				<path fill="#FFFFFF" d="M794.3,201.4H604.5c-13.4,0-24.2,10.8-24.2,24.2c0,13.4,10.8,24.2,24.2,24.2h165.6v165.6
					c0,13.4,10.8,24.2,24.2,24.2c13.4,0,24.2-10.8,24.2-24.2V225.7C818.6,212.3,807.7,201.4,794.3,201.4z"/>
			</g>
		</g>
	</g>
</g>
</svg>
