<?xml version="1.0" encoding="utf-8"?>
<!-- Generator: Adobe Illustrator 23.0.3, SVG Export Plug-In . SVG Version: 6.00 Build 0)  -->
<svg version="1.2" baseProfile="tiny" id="Layer_1" xmlns="http://www.w3.org/2000/svg" xmlns:xlink="http://www.w3.org/1999/xlink"
	 x="0px" y="0px" viewBox="0 0 1214 1214" xml:space="preserve">
<rect x="0.1" y="0.1" fill="#FFFFFF" width="1213.9" height="1213.9"/>
<g>
	<circle fill="#CDD1D0" cx="607" cy="607" r="593.9"/>
	<g>
		<g>
			<g>
				<path fill="#187169" d="M878.6,587.4L626.4,357.7c-11.1-10.1-27.8-10.1-38.8,0L335.4,587.4c-8.9,8.1-11.8,20.5-7.5,31.7
					c4.3,11.2,14.9,18.4,26.9,18.4h40.3v230.2c0,9.1,7.4,16.5,16.5,16.5h138.2c9.1,0,16.5-7.4,16.5-16.5V728h81.2v139.8
					c0,9.1,7.4,16.5,16.5,16.5h138.2c9.1,0,16.5-7.4,16.5-16.5V637.5h40.3c12,0,22.5-7.2,26.9-18.4
					C890.4,607.9,887.4,595.5,878.6,587.4z"/>
			</g>
		</g>
		<g>
			<g>
				<path fill="#187169" d="M814.6,383.1h-111l127.5,116v-99.4C831.1,390.5,823.7,383.1,814.6,383.1z"/>
			</g>
		</g>
	</g>
</g>
</svg>
