<?xml version="1.0" encoding="utf-8"?>
<!-- Generator: Adobe Illustrator 23.0.3, SVG Export Plug-In . SVG Version: 6.00 Build 0)  -->
<svg version="1.2" baseProfile="tiny" id="Layer_1" xmlns="http://www.w3.org/2000/svg" xmlns:xlink="http://www.w3.org/1999/xlink"
	 x="0px" y="0px" viewBox="0 0 1214 949" xml:space="preserve">
<g>
	<path d="M497.3,147.1c-163.8,69.7-303,219.4-313.6,383.2c27.9-24.4,80.1-59.3,149.8-59.3c87.1,0,191.6,69.7,191.6,226.4
		c0,163.8-104.6,243.9-236.9,243.9C107.2,941.3,9.6,808.9,9.6,592.9C9.6,279.5,229,77.4,420.6,7.7L497.3,147.1z M1176.5,147.1
		c-163.8,69.7-303,219.4-313.4,383.2c27.7-24.4,80.1-59.3,149.6-59.3c87.2,0,191.6,69.7,191.6,226.4
		c0,163.8-104.4,243.9-236.9,243.9c-181.1,0-278.7-132.4-278.7-348.3c0-313.5,219.5-515.5,411.2-585.2L1176.5,147.1z"/>
</g>
</svg>
