<?xml version="1.0" encoding="utf-8"?>
<!-- Generator: Adobe Illustrator 23.0.3, SVG Export Plug-In . SVG Version: 6.00 Build 0)  -->
<svg version="1.2" baseProfile="tiny" id="Layer_1" xmlns="http://www.w3.org/2000/svg" xmlns:xlink="http://www.w3.org/1999/xlink"
	 x="0px" y="0px" viewBox="0 0 1214 949" xml:space="preserve">
<g>
	<path d="M716.7,801.9c163.8-69.7,303-219.4,313.6-383.2c-27.9,24.4-80.1,59.3-149.8,59.3c-87.1,0-191.6-69.7-191.6-226.4
		C688.8,87.8,793.4,7.7,925.7,7.7c181.1,0,278.7,132.4,278.7,348.3c0,313.5-219.4,515.5-411,585.2L716.7,801.9z M37.5,801.9
		c163.8-69.7,303-219.4,313.4-383.2c-27.7,24.4-80.1,59.3-149.6,59.3C114,478,9.6,408.3,9.6,251.6C9.6,87.8,114,7.7,246.5,7.7
		c181.1,0,278.7,132.4,278.7,348.3c0,313.5-219.5,515.5-411.2,585.2L37.5,801.9z"/>
</g>
</svg>
