<?xml version="1.0" encoding="utf-8"?>
<!-- Generator: Adobe Illustrator 23.0.3, SVG Export Plug-In . SVG Version: 6.00 Build 0)  -->
<svg version="1.2" baseProfile="tiny" id="Layer_1" xmlns="http://www.w3.org/2000/svg" xmlns:xlink="http://www.w3.org/1999/xlink"
	 x="0px" y="0px" viewBox="0 0 81 81" xml:space="preserve">
<path d="M59.1,52.1c3.9-5.4,6.3-11.9,6.3-19C65.4,15.2,50.9,0.7,33,0.7S0.7,15.2,0.7,33S15.2,65.4,33,65.4c7.1,0,13.7-2.3,19-6.3
	l21.2,21.2l7-7C80.3,73.3,59.1,52.1,59.1,52.1L59.1,52.1z M33,55.4c-12.3,0-22.4-10-22.4-22.4s10-22.4,22.4-22.4s22.4,10,22.4,22.4
	S45.4,55.4,33,55.4L33,55.4z"/>
</svg>
