<?xml version="1.0" encoding="utf-8"?>
<!-- Generator: Adobe Illustrator 23.0.3, SVG Export Plug-In . SVG Version: 6.00 Build 0)  -->
<svg version="1.2" baseProfile="tiny" id="Layer_1" xmlns="http://www.w3.org/2000/svg" xmlns:xlink="http://www.w3.org/1999/xlink"
	 x="0px" y="0px" viewBox="0 0 1214 1214" xml:space="preserve">
<g>
	<circle fill="#0F7168" cx="607" cy="607" r="604.5"/>
	<g>
		<g>
			<path fill="#FFFFFF" d="M818.1,698.3c-39,0-73.4,18.6-95.9,47L513.8,638.7c2.7-10.2,4.7-20.7,4.7-31.8c0-12-2.3-23.4-5.6-34.4
				l207.5-106.1c22.4,29.7,57.6,49.2,97.7,49.2c67.9,0,122.8-54.9,122.8-122.7c0-67.8-54.9-122.7-122.8-122.7
				c-67.7,0-122.7,54.9-122.7,122.7c0,11.1,2,21.6,4.7,31.9L491.8,531.3c-22.5-28.5-57-47.1-96-47.1c-67.8,0-122.7,55-122.7,122.8
				s54.9,122.7,122.7,122.7c40.1,0,75.4-19.5,97.8-49.3L701,786.6c-3.3,11-5.6,22.4-5.6,34.5c0,67.8,55,122.7,122.7,122.7
				c67.9,0,122.8-54.9,122.8-122.7C940.9,753.2,886,698.3,818.1,698.3z"/>
		</g>
	</g>
</g>
</svg>
