<?xml version="1.0" encoding="utf-8"?>
<!-- Generator: Adobe Illustrator 23.0.3, SVG Export Plug-In . SVG Version: 6.00 Build 0)  -->
<svg version="1.2" baseProfile="tiny" id="Layer_1" xmlns="http://www.w3.org/2000/svg" xmlns:xlink="http://www.w3.org/1999/xlink"
	 x="0px" y="0px" viewBox="0 0 500 510" xml:space="preserve">
<g>
	<path fill="#007169" d="M250,12.7C116.2,12.7,7.7,121.2,7.7,255S116.2,497.3,250,497.3S492.3,388.8,492.3,255S383.8,12.7,250,12.7z
		 M360.6,201.6c0.1,2.4,0.2,4.8,0.2,7.2c0,73.5-55.9,158.3-158.3,158.3l0,0l0,0c-31.4,0-60.6-9.2-85.3-25c4.4,0.5,8.8,0.8,13.3,0.8
		c26.1,0,50-8.9,69.1-23.8c-24.3-0.5-44.9-16.5-52-38.6c3.4,0.7,6.9,1,10.5,1c5.1,0,10-0.7,14.7-2c-25.5-5.1-44.6-27.6-44.6-54.5
		c0-0.3,0-0.5,0-0.7c7.5,4.2,16.1,6.7,25.2,7c-14.9-10-24.8-27-24.8-46.3c0-10.2,2.8-19.7,7.5-28c27.4,33.7,68.4,55.8,114.6,58.1
		c-1-4.1-1.4-8.3-1.4-12.7c0-30.7,24.9-55.6,55.6-55.6c16,0,30.4,6.8,40.6,17.6c12.7-2.5,24.6-7.1,35.3-13.5
		c-4.2,13-13,23.9-24.5,30.8c11.3-1.3,22-4.3,31.9-8.8C380.9,184,371.5,193.8,360.6,201.6z"/>
</g>
</svg>
